<svg xmlns="http://www.w3.org/2000/svg" xmlns:xlink="http://www.w3.org/1999/xlink" width="1920" zoomAndPan="magnify" viewBox="0 0 1440 809.999993" height="1080" preserveAspectRatio="xMidYMid meet" version="1.0"><defs><clipPath id="cda7b67de2"><path d="M 578.484375 261 L 861 261 L 861 549 L 578.484375 549 Z M 578.484375 261 " clip-rule="nonzero"/></clipPath><clipPath id="e17c27623a"><path d="M 734.285156 293.414062 C 713.464844 324.171875 715.949219 350.375 692.464844 364.335938 C 645.144531 392.550781 596.644531 365.636719 581.738281 414.019531 C 566.476562 463.585938 605.574219 511.5 687.4375 541.488281 C 782.90625 576.5625 880.382812 481.097656 857.492188 410.058594 C 838.566406 351.203125 871.335938 325.414062 851.636719 293.414062 C 819.34375 241.066406 756.585938 260.410156 734.285156 293.414062 Z M 734.285156 293.414062 " clip-rule="nonzero"/></clipPath></defs><g clip-path="url(#cda7b67de2)"><g clip-path="url(#e17c27623a)"><path fill="#a6a6a6" d="M 578.484375 261 L 860.863281 261 L 860.863281 549.289062 L 578.484375 549.289062 Z M 578.484375 261 " fill-opacity="1" fill-rule="nonzero"/></g></g></svg>